<svg width="587.639990234375px" height="124.439990234375px" xmlns="http://www.w3.org/2000/svg" viewBox="-43.81999511718749 12.780004882812499 587.639990234375 124.439990234375" style="background:#596886" preserveAspectRatio="xMidYMid"><defs><filter id="editing-hover" x="-100%" y="-100%" width="300%" height="300%"><feFlood flood-color="#052b4a" result="flood"></feFlood><feComposite operator="in" in2="SourceAlpha" in="flood" result="shadow"></feComposite><feOffset dx="-4" dy="-4" in="SourceGraphic" result="offset-1"></feOffset><feOffset dx="4" dy="4" in="shadow" result="offset-2"></feOffset><feMerge><feMergeNode in="offset-2"></feMergeNode><feMergeNode in="offset-1"></feMergeNode></feMerge></filter></defs><g filter="url(#editing-hover)"><g transform="translate(43.8249990940094, 104.47000122070312)"><path d="M14.21 0L0.51 0L8.32-42.05L8.32-42.05Q14.66-42.75 23.90-42.75L23.90-42.75L23.90-42.75Q33.15-42.75 37.44-40.06L37.44-40.06L37.44-40.06Q41.73-37.38 41.73-31.97L41.73-31.97L41.73-31.97Q41.73-26.56 38.94-23.17L38.94-23.17L38.94-23.17Q36.16-19.78 31.36-18.69L31.36-18.69L31.36-18.69Q32.45-13.38 34.94-9.09L34.94-9.09L34.94-9.09Q37.25-5.06 39.94-3.78L39.94-3.78L39.94-3.78Q38.98-1.09 37.02 0.10L37.02 0.10L37.02 0.10Q35.07 1.28 32.29 1.28L32.29 1.28L32.29 1.28Q29.50 1.28 27.33-0.35L27.33-0.35L27.33-0.35Q25.15-1.98 23.42-4.99L23.42-4.99L23.42-4.99Q19.78-11.52 19.39-21.82L19.39-21.82L19.84-21.82L19.84-21.82Q24.58-21.95 26.94-24.42L26.94-24.42L26.94-24.42Q29.31-26.88 29.31-32.06L29.31-32.06L29.31-32.06Q29.31-38.53 23.87-38.78L23.87-38.78L22.46-38.78L22.46-38.78Q21.89-38.78 21.57-38.72L21.57-38.72L14.21 0ZM76.86-7.10L76.86-7.10L76.86-7.10Q76.86-4.29 79.74-3.46L79.74-3.46L79.74-3.46Q79.04-1.09 76.29 0.19L76.29 0.19L76.29 0.19Q73.98 1.28 71.46 1.28L71.46 1.28L71.46 1.28Q68.93 1.28 67.62 0.61L67.62 0.61L67.62 0.61Q66.30-0.06 65.60-1.15L65.60-1.15L65.60-1.15Q64.45-2.82 64.45-5.95L64.45-5.95L64.45-5.95Q64.45-7.81 65.47-12.93L65.47-12.93L66.37-17.79L66.37-17.79Q67.46-23.36 67.46-25.41L67.46-25.41L67.46-25.41Q67.46-28.99 65.47-28.99L65.47-28.99L65.47-28.99Q62.98-28.99 61.38-25.34L61.38-25.34L61.38-25.34Q60.74-23.94 60.29-21.82L60.29-21.82L55.94 0L43.07 1.28L52.10-44.80L64.96-46.08L64.45-43.52L64.45-43.52Q62.66-33.66 61.12-30.34L61.12-30.34L61.12-30.34Q64.70-33.92 71.30-33.92L71.30-33.92L71.30-33.92Q78.27-33.92 79.55-29.31L79.55-29.31L79.55-29.31Q80-27.84 80-26.56L80-26.56L80-26.56Q80-25.28 79.90-24.29L79.90-24.29L79.90-24.29Q79.81-23.30 79.49-21.50L79.49-21.50L78.66-16.90L77.18-9.66L77.18-9.66Q76.86-8.19 76.86-7.10ZM105.28-7.23L105.28-7.23L105.28-7.23Q101.95-3.78 95.87-3.78L95.87-3.78L95.87-3.78Q88.26-3.78 86.66-9.34L86.66-9.34L86.66-9.34Q86.14-11.01 86.14-12.86L86.14-12.86L86.14-12.86Q86.14-14.72 86.53-16.64L86.53-16.64L89.54-32.64L102.53-33.92L99.01-15.30L99.01-15.30Q98.88-14.46 98.69-13.57L98.69-13.57L98.69-13.57Q98.50-12.67 98.50-11.74L98.50-11.74L98.50-11.74Q98.50-10.82 98.82-10.21L98.82-10.21L98.82-10.21Q99.14-9.60 99.58-9.22L99.58-9.22L99.58-9.22Q100.35-8.70 101.73-8.70L101.73-8.70L101.73-8.70Q103.10-8.70 104.29-10.37L104.29-10.37L104.29-10.37Q105.47-12.03 106.05-14.91L106.05-14.91L109.57-32.64L122.18-33.92L117.38-8.77L117.38-8.77Q115.01 3.52 110.14 8.38L110.14 8.38L110.14 8.38Q107.65 10.88 104.42 11.87L104.42 11.87L104.42 11.87Q101.18 12.86 97.02 12.86L97.02 12.86L97.02 12.86Q90.30 12.86 86.46 10.75L86.46 10.75L86.46 10.75Q82.62 8.64 82.62 5.12L82.62 5.12L82.62 5.12Q82.62 2.50 84.61 0.99L84.61 0.99L84.61 0.99Q86.59-0.51 89.66-0.51L89.66-0.51L89.66-0.51Q92.35-0.51 94.40 0.64L94.40 0.64L94.40 0.64Q95.62 1.34 96.19 2.24L96.19 2.24L96.19 2.24Q94.72 3.52 94.72 5.63L94.72 5.63L94.72 5.63Q94.72 8.45 97.28 8.45L97.28 8.45L97.28 8.45Q101.50 8.45 103.94-1.28L103.94-1.28L103.94-1.28Q104.64-4.16 105.28-7.23ZM125.50-6.40L125.50-6.40L125.50-6.40Q125.50-8.13 126.40-12.48L126.40-12.48L129.79-29.76L126.02-29.76L126.27-31.68L126.27-31.68Q133.95-33.98 141.38-39.62L141.38-39.62L144.45-39.62L142.91-32.64L147.90-32.64L147.33-29.76L142.40-29.76L139.14-12.48L139.14-12.48Q138.30-8.51 138.30-7.17L138.30-7.17L138.30-7.17Q138.30-4.10 140.99-3.46L140.99-3.46L140.99-3.46Q140.35-1.28 138.05 0L138.05 0L138.05 0Q135.74 1.28 132.48 1.28L132.48 1.28L132.48 1.28Q129.22 1.28 127.36-0.77L127.36-0.77L127.36-0.77Q125.50-2.82 125.50-6.40ZM179.78-7.10L179.78-7.10L179.78-7.10Q179.78-4.29 182.66-3.46L182.66-3.46L182.66-3.46Q181.95-1.09 179.20 0.19L179.20 0.19L179.20 0.19Q176.90 1.28 174.37 1.28L174.37 1.28L174.37 1.28Q171.84 1.28 170.53 0.61L170.53 0.61L170.53 0.61Q169.22-0.06 168.51-1.15L168.51-1.15L168.51-1.15Q167.36-2.82 167.36-5.95L167.36-5.95L167.36-5.95Q167.36-7.81 168.38-12.93L168.38-12.93L169.28-17.79L169.28-17.79Q170.37-23.36 170.37-25.41L170.37-25.41L170.37-25.41Q170.37-28.99 168.38-28.99L168.38-28.99L168.38-28.99Q165.89-28.99 164.29-25.34L164.29-25.34L164.29-25.34Q163.65-23.94 163.20-21.82L163.20-21.82L158.85 0L145.98 1.28L155.01-44.80L167.87-46.08L167.36-43.52L167.36-43.52Q165.57-33.66 164.03-30.34L164.03-30.34L164.03-30.34Q167.62-33.92 174.21-33.92L174.21-33.92L174.21-33.92Q181.18-33.92 182.46-29.31L182.46-29.31L182.46-29.31Q182.91-27.84 182.91-26.56L182.91-26.56L182.91-26.56Q182.91-25.28 182.82-24.29L182.82-24.29L182.82-24.29Q182.72-23.30 182.40-21.50L182.40-21.50L181.57-16.90L180.10-9.66L180.10-9.66Q179.78-8.19 179.78-7.10ZM233.92 1.28L233.92 1.28L233.92 1.28Q226.18 1.28 226.18-4.74L226.18-4.74L226.18-4.74Q226.18-7.36 227.30-12.45L227.30-12.45L227.30-12.45Q228.42-17.54 228.80-19.58L228.80-19.58L228.80-19.58Q229.70-24.26 229.70-25.73L229.70-25.73L229.70-25.73Q229.70-28.99 227.26-28.99L227.26-28.99L227.26-28.99Q225.66-28.99 224.13-26.78L224.13-26.78L224.13-26.78Q222.59-24.58 221.89-20.16L221.89-20.16L217.92 0L205.44 1.28L208.90-16.13L208.90-16.13Q209.47-19.01 209.98-22.27L209.98-22.27L209.98-22.27Q210.50-25.54 210.50-26.05L210.50-26.05L210.50-26.05Q210.50-28.99 208.32-28.99L208.32-28.99L208.32-28.99Q206.85-28.99 205.25-26.82L205.25-26.82L205.25-26.82Q203.65-24.64 202.75-20.16L202.75-20.16L198.85 0L186.24 1.28L192.96-32.64L203.39-33.92L202.30-27.46L202.30-27.46Q203.97-30.91 207.04-32.42L207.04-32.42L207.04-32.42Q210.11-33.92 214.91-33.92L214.91-33.92L214.91-33.92Q217.66-33.92 219.46-32.58L219.46-32.58L219.46-32.58Q221.25-31.23 221.82-29.06L221.82-29.06L221.82-29.06Q222.91-31.30 225.70-32.61L225.70-32.61L225.70-32.61Q228.48-33.92 231.90-33.92L231.90-33.92L231.90-33.92Q235.33-33.92 237.02-33.18L237.02-33.18L237.02-33.18Q238.72-32.45 239.74-31.23L239.74-31.23L239.74-31.23Q241.47-28.99 241.47-24.90L241.47-24.90L241.47-24.90Q241.47-20.86 239.74-12.48L239.74-12.48L239.74-12.48Q238.85-8.38 238.85-6.88L238.85-6.88L238.85-6.88Q238.85-5.38 239.71-4.48L239.71-4.48L239.71-4.48Q240.58-3.58 241.86-3.46L241.86-3.46L241.86-3.46Q241.22-1.28 239.01 0L239.01 0L239.01 0Q236.80 1.28 233.92 1.28ZM259.84-1.60L259.46-9.47L267.46-15.62L272.45-19.71L272.45-19.71Q275.01-21.89 276.86-23.81L276.86-23.81L276.86-23.81Q280.26-27.20 280.26-30.46L280.26-30.46L280.26-30.46Q280.26-32.38 279.01-33.41L279.01-33.41L279.01-33.41Q277.76-34.43 275.94-34.43L275.94-34.43L275.94-34.43Q274.11-34.43 272.80-34.02L272.80-34.02L272.80-34.02Q271.49-33.60 270.34-32.90L270.34-32.90L270.34-32.90Q267.90-31.30 266.75-28.86L266.75-28.86L266.75-28.86Q265.15-28.93 264.10-30.27L264.10-30.27L264.10-30.27Q263.04-31.62 263.04-33.57L263.04-33.57L263.04-33.57Q263.04-35.52 264.26-37.34L264.26-37.34L264.26-37.34Q265.47-39.17 267.65-40.58L267.65-40.58L267.65-40.58Q272.38-43.52 278.88-43.52L278.88-43.52L278.88-43.52Q285.38-43.52 289.02-40.70L289.02-40.70L289.02-40.70Q292.67-37.89 292.67-33.09L292.67-33.09L292.67-33.09Q292.67-29.50 290.91-26.24L290.91-26.24L290.91-26.24Q289.15-22.98 284.48-19.65L284.48-19.65L277.57-14.78L273.41-12.03L268.10-8.77L270.34-8.51L270.34-8.51Q271.87-8.32 274.56-8.32L274.56-8.32L274.56-8.32Q277.25-8.32 279.49-8.61L279.49-8.61L279.49-8.61Q281.73-8.90 283.65-9.47L283.65-9.47L283.65-9.47Q287.87-10.62 289.22-12.22L289.22-12.22L289.22-12.22Q289.92-11.71 290.46-10.40L290.46-10.40L290.46-10.40Q291.01-9.09 291.01-7.49L291.01-7.49L291.01-7.49Q291.01-2.69 287.36-0.70L287.36-0.70L287.36-0.70Q283.71 1.28 276.22 1.28L276.22 1.28L276.22 1.28Q272.32 1.28 267.14 0.16L267.14 0.16L267.14 0.16Q261.95-0.96 259.84-1.60L259.84-1.60ZM308.93 0L295.30 0L302.59-38.91L303.30-42.24L316.99-42.24L308.93 0ZM334.91-3.78L334.91-3.78L334.91-3.78Q333.18 1.28 326.53 1.28L326.53 1.28L326.53 1.28Q321.60 1.28 318.21-4.61L318.21-4.61L318.21-4.61Q314.75-10.50 314.11-20.10L314.11-20.10L314.11-20.10Q321.15-32.96 326.02-38.27L326.02-38.27L326.02-38.27Q330.69-43.33 335.55-43.33L335.55-43.33L335.55-43.33Q338.18-43.33 340.06-41.92L340.06-41.92L340.06-41.92Q341.95-40.51 342.40-38.27L342.40-38.27L342.40-38.27Q340.22-37.38 339.20-36.67L339.20-36.67L339.20-36.67Q336.64-34.75 333.18-30.46L333.18-30.46L327.36-23.49L327.36-23.49Q325.95-21.82 325.38-21.06L325.38-21.06L325.38-21.06Q326.34-15.68 329.22-10.37L329.22-10.37L329.22-10.37Q331.97-5.31 334.91-3.78ZM340.22-1.60L339.84-9.47L347.84-15.62L352.83-19.71L352.83-19.71Q355.39-21.89 357.25-23.81L357.25-23.81L357.25-23.81Q360.64-27.20 360.64-30.46L360.64-30.46L360.64-30.46Q360.64-32.38 359.39-33.41L359.39-33.41L359.39-33.41Q358.14-34.43 356.32-34.43L356.32-34.43L356.32-34.43Q354.50-34.43 353.18-34.02L353.18-34.02L353.18-34.02Q351.87-33.60 350.72-32.90L350.72-32.90L350.72-32.90Q348.29-31.30 347.14-28.86L347.14-28.86L347.14-28.86Q345.54-28.93 344.48-30.27L344.48-30.27L344.48-30.27Q343.42-31.62 343.42-33.57L343.42-33.57L343.42-33.57Q343.42-35.52 344.64-37.34L344.64-37.34L344.64-37.34Q345.86-39.17 348.03-40.58L348.03-40.58L348.03-40.58Q352.77-43.52 359.26-43.52L359.26-43.52L359.26-43.52Q365.76-43.52 369.41-40.70L369.41-40.70L369.41-40.70Q373.06-37.89 373.06-33.09L373.06-33.09L373.06-33.09Q373.06-29.50 371.30-26.24L371.30-26.24L371.30-26.24Q369.54-22.98 364.86-19.65L364.86-19.65L357.95-14.78L353.79-12.03L348.48-8.77L350.72-8.51L350.72-8.51Q352.26-8.32 354.94-8.32L354.94-8.32L354.94-8.32Q357.63-8.32 359.87-8.61L359.87-8.61L359.87-8.61Q362.11-8.90 364.03-9.47L364.03-9.47L364.03-9.47Q368.26-10.62 369.60-12.22L369.60-12.22L369.60-12.22Q370.30-11.71 370.85-10.40L370.85-10.40L370.85-10.40Q371.39-9.09 371.39-7.49L371.39-7.49L371.39-7.49Q371.39-2.69 367.74-0.70L367.74-0.70L367.74-0.70Q364.10 1.28 356.61 1.28L356.61 1.28L356.61 1.28Q352.70 1.28 347.52 0.16L347.52 0.16L347.52 0.16Q342.34-0.96 340.22-1.60L340.22-1.60ZM377.28-15.23L377.28-15.23L377.28-15.23Q377.28-28.16 383.36-35.84L383.36-35.84L383.36-35.84Q389.44-43.52 399.87-43.52L399.87-43.52L399.87-43.52Q405.44-43.52 408.64-39.36L408.64-39.36L408.64-39.36Q411.84-35.20 411.84-28.26L411.84-28.26L411.84-28.26Q411.84-21.31 410.27-15.90L410.27-15.90L410.27-15.90Q408.70-10.50 405.89-6.66L405.89-6.66L405.89-6.66Q400 1.34 390.21 1.34L390.21 1.34L390.21 1.34Q383.62 1.34 380.45-2.72L380.45-2.72L380.45-2.72Q377.28-6.78 377.28-15.23ZM388.61-10.88L388.61-10.88L388.61-10.88Q388.61-4.42 390.72-4.42L390.72-4.42L390.72-4.42Q392.64-4.42 394.40-6.66L394.40-6.66L394.40-6.66Q396.16-8.90 397.57-12.67L397.57-12.67L397.57-12.67Q400.58-20.93 400.58-31.17L400.58-31.17L400.58-31.17Q400.58-34.62 400.03-36.19L400.03-36.19L400.03-36.19Q399.49-37.76 398.05-37.76L398.05-37.76L398.05-37.76Q396.61-37.76 394.91-35.26L394.91-35.26L394.91-35.26Q393.22-32.77 391.81-28.86L391.81-28.86L391.81-28.86Q388.61-19.97 388.61-10.88Z" fill="#ffd5af"></path></g></g><style>text {
  font-size: 64px;
  font-family: Arial Black;
  dominant-baseline: central;
  text-anchor: middle;
}</style></svg>